# xmcd
#
# Track frame offsets:
#	150
#	20032
#	38835
#	55837
#	70762
#	89250
#	105005
#	125852
#	142762
#	159375
#
# Disc length: 2348 seconds
#
# Revision: 0
# Processed by: cddbd v1.5.1PL0 Copyright (c) Steve Scherf et al.
# Submitted via: dBpowerAMP V4.0
#
DISCID=7a092a0a
DTITLE=吳奇隆 - 找我
DYEAR=1996
DGENRE=
TTITLE0=找我
TTITLE1=暴走
TTITLE2=洗腦
TTITLE3=初戀總是這麼甜
TTITLE4=誰令我
TTITLE5=愛你無明天
TTITLE6=噢! 媽媽
TTITLE7=欲望之規條
TTITLE8=野的感覺
TTITLE9=如明日有幸再敘
EXTD=
EXTT0=
EXTT1=
EXTT2=
EXTT3=
EXTT4=
EXTT5=
EXTT6=
EXTT7=
EXTT8=
EXTT9=
PLAYORDER=
